<?xml version="1.0" encoding="iso-8859-1"?>
<!-- Generator: Adobe Illustrator 19.0.0, SVG Export Plug-In . SVG Version: 6.00 Build 0)  -->
<svg version="1.1" id="Layer_1" xmlns="http://www.w3.org/2000/svg" xmlns:xlink="http://www.w3.org/1999/xlink" x="0px" y="0px"
	 viewBox="0 0 512 512" style="enable-background:new 0 0 512 512;" xml:space="preserve">
<g>
	<g>
		<path d="M511.78,294.907c0-0.008,0.002-0.016,0.002-0.023c0-0.053-0.008-0.104-0.008-0.16
			c-5.444-136.384-118.077-245.67-255.775-245.672c-0.002,0-0.002,0-0.002,0c-0.019,0-0.037,0-0.056,0
			c-0.006,0-0.011,0.002-0.017,0.002C114.801,49.094,0,163.92,0,305.057c0,53.281,16.396,104.496,47.414,148.108
			c7.45,10.471,21.98,12.923,32.455,5.475c10.474-7.45,12.926-21.98,5.475-32.455c-22.826-32.093-35.939-69.204-38.357-108.029
			h46.178c12.853,0,23.273-10.42,23.273-23.273c0-12.853-10.42-23.273-23.273-23.273H49.227
			c6.267-38.884,23.268-74.217,47.864-102.855l27.344,27.341c4.544,4.544,10.499,6.816,16.455,6.816
			c5.956,0,11.914-2.273,16.457-6.819c9.087-9.087,9.087-23.823-0.002-32.912l-26.202-26.199
			c29.032-21.625,63.834-35.904,101.638-40.093l0.082,35.078c0.031,12.834,10.443,23.218,23.271,23.218c0.019,0,0.037,0,0.056,0
			c12.853-0.031,23.248-10.474,23.218-23.327l-0.082-34.956c37.824,4.212,72.642,18.525,101.675,40.187L354.9,163.189
			c-9.089,9.087-9.09,23.822-0.003,32.912c4.544,4.546,10.501,6.819,16.457,6.819c5.955,0,11.911-2.271,16.454-6.816l27.215-27.21
			c24.534,28.613,41.491,63.896,47.748,102.715h-43.684c-12.853,0-23.273,10.42-23.273,23.273c0,12.853,10.42,23.273,23.273,23.273
			h45.923c-2.416,38.838-15.531,75.948-38.36,108.023c-7.453,10.473-5.007,25.003,5.466,32.456
			c4.093,2.914,8.806,4.313,13.475,4.313c7.275,0,14.442-3.401,18.98-9.779C495.6,409.576,512,358.359,512,305.058
			C512,301.656,511.913,298.275,511.78,294.907z"/>
	</g>
</g>
<g>
	<g>
		<path d="M329.128,232.837c-10.066-7.989-24.706-6.31-32.698,3.756l-37.536,47.281c-0.352-0.009-0.701-0.026-1.055-0.026
			c-21.388,0-38.789,17.399-38.794,38.794c0.005,21.385,17.406,38.782,38.794,38.782c10.359,0,20.1-4.034,27.425-11.357
			c7.326-7.326,11.36-17.07,11.359-27.426c0.002-3.367-0.433-6.667-1.26-9.843l37.522-47.262
			C340.877,255.469,339.195,240.829,329.128,232.837z"/>
	</g>
</g>
<g>
</g>
<g>
</g>
<g>
</g>
<g>
</g>
<g>
</g>
<g>
</g>
<g>
</g>
<g>
</g>
<g>
</g>
<g>
</g>
<g>
</g>
<g>
</g>
<g>
</g>
<g>
</g>
<g>
</g>
</svg>
