<svg class="SVGInline-svg discover-sidebar__icon-svg" xmlns="http://www.w3.org/2000/svg" viewBox="0 0 24 24"><path fill="#FFF" d="M23.48 10.876a1.84 1.84 0 00.435-1.841c-.205-.656-.737-1.124-1.39-1.223l-5.811-.881a.762.762 0 01-.572-.434L13.544 1C13.252.384 12.66 0 12 0s-1.251.384-1.543 1.001L7.86 6.497a.763.763 0 01-.573.434l-5.81.882C.821 7.91.29 8.38.085 9.035a1.84 1.84 0 00.435 1.842l4.204 4.278c.18.182.262.445.22.702l-.992 6.04a1.814 1.814 0 00.375 1.457 1.69 1.69 0 002.122.437l5.197-2.852a.749.749 0 01.707 0l5.197 2.852c.253.139.523.209.8.209.509 0 .99-.236 1.322-.646.33-.408.463-.926.375-1.457l-.992-6.04a.816.816 0 01.219-.702l4.204-4.279z"></path></svg>