<svg class="SVGInline-svg discover-sidebar__icon-svg" xmlns="http://www.w3.org/2000/svg" viewBox="0 0 19 26"><path fill="#FFF" d="M4.929 25.819C1.783 16.36 8.43 12.909 8.43 12.909c-.465 5.046 2.679 8.977 2.679 8.977 1.156-.318 3.363-1.805 3.363-1.805 0 1.805-1.165 5.735-1.165 5.735s4.077-2.875 5.36-7.65c1.281-4.776-2.441-9.57-2.441-9.57.224 3.38-1.03 6.704-3.485 9.244.123-.13.226-.273.305-.43.441-.804 1.15-2.896.735-7.741C13.197 2.868 6.442 0 6.442 0 7.024 4.144 5.28 5.098 1.19 12.964c-4.09 7.864 3.74 12.855 3.74 12.855z"></path></svg>