<?xml version="1.0" encoding="iso-8859-1"?>
<!-- Generator: Adobe Illustrator 19.0.0, SVG Export Plug-In . SVG Version: 6.00 Build 0)  -->
<svg version="1.1" id="Layer_1" xmlns="http://www.w3.org/2000/svg" xmlns:xlink="http://www.w3.org/1999/xlink" x="0px" y="0px"
	 viewBox="0 0 512.002 512.002" style="enable-background:new 0 0 512.002 512.002;" xml:space="preserve">
<g>
	<g>
		<path d="M276.502,27.81c-4.051-7.562-11.935-12.281-20.515-12.281c-8.579,0-16.462,4.719-20.514,12.281l-81.861,152.808
			c0.182,0.143,0.372,0.273,0.549,0.42l17.699,14.794l18.235,15.243l8.427,7.045l49.444-18.208
			c5.193-1.911,10.896-1.91,16.088,0.003l49.402,18.204l8.424-7.036l18.24-15.235l17.741-14.818c0.164-0.14,0.344-0.258,0.512-0.391
			L276.502,27.81z"/>
	</g>
</g>
<g>
	<g>
		<path d="M508.654,461.168L380.802,222.513l-18.239,15.235l-18.24,15.232l-11.363,9.492c-6.39,5.339-15.153,6.856-22.966,3.976
			l-53.991-19.894l-54.035,19.896c-2.616,0.963-5.337,1.434-8.039,1.435c-5.376,0-10.675-1.862-14.928-5.416l-11.353-9.492
			l-18.235-15.243l-18.234-15.243L2.759,462.211c-3.863,7.211-3.658,15.924,0.546,22.944c4.204,7.02,11.785,11.318,19.967,11.318
			h465.428c0.012,0,0.023,0,0.031,0c12.854,0,23.271-10.421,23.271-23.271C512,468.797,510.778,464.681,508.654,461.168z"/>
	</g>
</g>
<g>
</g>
<g>
</g>
<g>
</g>
<g>
</g>
<g>
</g>
<g>
</g>
<g>
</g>
<g>
</g>
<g>
</g>
<g>
</g>
<g>
</g>
<g>
</g>
<g>
</g>
<g>
</g>
<g>
</g>
</svg>
