<?xml version="1.0" standalone="no"?>
<!DOCTYPE svg PUBLIC "-//W3C//DTD SVG 20010904//EN"
 "http://www.w3.org/TR/2001/REC-SVG-20010904/DTD/svg10.dtd">
<svg version="1.0" xmlns="http://www.w3.org/2000/svg"
 width="1280.000000pt" height="1228.000000pt" viewBox="0 0 1280.000000 1228.000000"
 preserveAspectRatio="xMidYMid meet">
<g transform="translate(0.000000,1228.000000) scale(0.100000,-0.100000)" stroke="none">
<path d="M10249 12163 c-503 -432 -1098 -737 -1889 -968 -186 -54 -554 -148
-707 -181 -58 -12 -83 -21 -83 -31 0 -8 131 -499 291 -1091 159 -593 299
-1111 310 -1152 41 -153 35 -143 88 -135 132 19 411 95 643 174 223 76 289
103 285 115 -2 6 -163 445 -357 975 -280 767 -350 965 -339 972 8 5 32 14 54
19 103 27 455 147 590 200 300 120 650 307 933 499 67 46 127 81 134 79 15 -5
740 -1807 731 -1820 -11 -19 -326 -249 -468 -343 -344 -228 -683 -398 -1080
-542 -82 -30 -154 -58 -158 -63 -8 -7 746 -2114 762 -2133 9 -10 406 187 603
299 367 208 700 452 1002 733 60 56 114 100 119 98 6 -2 34 -64 63 -138 29
-73 177 -448 328 -833 152 -384 276 -706 276 -715 0 -35 -180 -237 -364 -410
-308 -288 -812 -643 -1231 -867 -105 -56 -129 -63 -138 -41 -2 6 -152 419
-332 917 -181 498 -331 909 -335 913 -4 5 -43 -9 -86 -31 -200 -100 -575 -249
-859 -341 -206 -67 -204 -67 -231 -11 -11 25 -585 1314 -1274 2865 -689 1551
-1259 2827 -1267 2835 -12 13 -81 15 -501 15 -480 0 -565 -4 -927 -41 -720
-74 -1443 -259 -2085 -534 -548 -234 -1101 -573 -1539 -941 -68 -57 -136 -113
-149 -125 -17 -14 -23 -27 -20 -40 3 -10 232 -593 508 -1294 276 -701 609
-1547 740 -1880 131 -333 531 -1350 890 -2260 358 -910 710 -1805 782 -1988
72 -182 134 -332 138 -332 4 0 40 40 79 89 287 364 788 857 1271 1252 971 792
2134 1489 2903 1738 201 65 343 92 477 93 170 0 258 -40 306 -139 25 -50 26
-61 21 -146 -10 -175 -117 -401 -325 -686 -176 -242 -477 -579 -498 -558 -2 1
38 70 87 152 254 424 326 688 216 792 -42 39 -85 53 -166 53 -308 0 -925 -340
-1343 -739 -42 -40 -68 -72 -68 -85 0 -12 18 -52 40 -90 168 -288 438 -456
845 -527 167 -29 507 -32 710 -5 791 102 1695 440 2560 959 722 432 1307 942
1544 1345 l31 53 -74 187 c-395 997 -575 1452 -1106 2792 -337 850 -754 1903
-927 2340 -173 437 -316 796 -317 798 -2 1 -54 -42 -117 -95z m-3842 -1347
c211 -457 379 -834 375 -838 -5 -5 -96 -18 -203 -29 -709 -72 -1379 -225
-2017 -460 -53 -20 -63 -27 -59 -44 8 -42 1002 -2325 1012 -2325 6 0 98 35
205 79 421 169 887 324 1285 426 337 87 725 159 745 139 17 -17 740 -1649 736
-1660 -2 -6 -41 -21 -86 -33 -490 -133 -1233 -498 -1889 -929 -120 -79 -145
-92 -156 -81 -7 8 -201 462 -430 1009 -229 547 -420 999 -425 1004 -15 15
-539 -259 -904 -472 -489 -284 -853 -535 -1297 -891 -21 -17 -33 -21 -40 -14
-12 12 -959 2469 -959 2489 0 16 377 299 580 436 420 281 936 562 1439 783 73
33 135 64 138 71 2 6 -165 435 -372 953 -208 518 -375 947 -372 955 10 26 398
128 647 170 391 66 782 93 1364 92 l300 -1 383 -829z"/>
<path d="M282 10350 c-145 -65 -265 -120 -267 -122 -1 -1 192 -559 430 -1238
421 -1202 1266 -3614 2520 -7195 339 -968 620 -1764 625 -1769 9 -9 926 349
935 365 3 3 -42 125 -99 270 -58 145 -398 1011 -756 1924 -644 1639 -1479
3766 -2370 6035 -251 641 -517 1319 -591 1507 -95 242 -138 343 -149 342 -8 0
-133 -54 -278 -119z"/>
</g>
</svg>
