<?xml version="1.0" encoding="iso-8859-1"?>
<!-- Generator: Adobe Illustrator 18.1.1, SVG Export Plug-In . SVG Version: 6.00 Build 0)  -->
<svg version="1.1" id="Capa_1" xmlns="http://www.w3.org/2000/svg" xmlns:xlink="http://www.w3.org/1999/xlink" x="0px" y="0px"
	 viewBox="0 0 307.296 307.296" style="enable-background:new 0 0 307.296 307.296;" xml:space="preserve">
<g>
	<g>
		<path d="M301.395,84.292V62.356h-1.267v-7.789h-13.913v7.789c-18.645,0.022-137.869,0.152-195.067,0.196
			l-7.555-15.637l-14.729-3.927v19.575h-1.485c-8.093,0-24.465,8.55-32.857,24.03c-5.417,9.997-9.105,26.184,4.096,46.493
			l3.628,5.559l0.908-6.576c0.218-1.55,0.8-3.35,1.284-4.063c0.49,0.381,1.626,1.539,3.345,4.873
			c0.044,0.098,4.324,9.698-14.604,33.064C12.646,191.289,0.555,255.802,0,258.973v5.336h82.222v-7.228
			c14.658-16.459,23.616-48.712,28.724-74.711c1.664,0.299,3.323,0.441,4.944,0.441h24.476c16.089,0,37.66-16.709,37.66-33.804
			c0-5.194-1.376-10.312-3.943-14.8h127.301v-21.941h5.912V84.286h-5.901V84.292z M140.371,177.855h-24.476
			c-1.479,0-3.024-0.207-4.558-0.506l4.172-25.101c3.932,7.849,9.556,13.26,16.861,16.111c0.995,0.381,2.051,0.577,3.133,0.577
			c3.535,0,6.772-2.208,8.05-5.515c1.724-4.444-0.49-9.464-4.922-11.215c-7.364-2.839-11.95-11.248-13.734-18.205h43.067
			c3.296,4.368,5.102,9.518,5.102,15.001C173.066,162.935,153.882,177.855,140.371,177.855z"/>
	</g>
</g>
<g>
</g>
<g>
</g>
<g>
</g>
<g>
</g>
<g>
</g>
<g>
</g>
<g>
</g>
<g>
</g>
<g>
</g>
<g>
</g>
<g>
</g>
<g>
</g>
<g>
</g>
<g>
</g>
<g>
</g>
</svg>
